<svg xmlns="http://www.w3.org/2000/svg" width="47" height="53" viewBox="0 0 47 53"><g><g><g/><g><g/><g><path fill="#ed4c5c" d="M44.026 18.96A2.971 2.971 0 0 1 47 21.928v15.449c0 1.64-1.333 2.97-2.974 2.97H42.75v10.575A2.083 2.083 0 0 1 40.67 53H6.33a2.082 2.082 0 0 1-2.081-2.078V40.347H2.974A2.974 2.974 0 0 1 0 37.377V21.928a2.972 2.972 0 0 1 2.974-2.97H4.25V2.078C4.249.933 5.18 0 6.33 0h25.149c.08 0 .16.01.238.03l.057.019c.071.021.14.05.205.086l.067.042c.076.048.146.106.207.172l.008.008L42.49 12.03c.162.186.25.425.249.672.006.038.01.077.011.116v6.142zM6.33 2.078v16.88h34.342V13.75h-9.193a1.04 1.04 0 0 1-1.042-1.038V2.078zm18.117 30.595c0 .99-.834 1.645-2.413 1.645a8.682 8.682 0 0 1-3.81-.946l-.699 2.814c.858.474 2.57.947 4.307.947 4.172 0 6.11-2.161 6.11-4.707 0-2.14-1.239-3.536-3.923-4.527-1.985-.744-2.818-1.17-2.818-2.139 0-.766.722-1.462 2.21-1.462a7.14 7.14 0 0 1 3.157.719l.767-2.747c-.902-.426-2.141-.764-3.878-.764-3.563 0-5.751 1.958-5.751 4.547 0 2.206 1.667 3.603 4.194 4.504 1.827.631 2.547 1.17 2.547 2.116zm-12.496 4.458c1.826 0 3.27-.363 3.879-.654l-.499-2.701c-.697.294-1.825.495-2.885.495-3.044 0-4.847-1.915-4.847-4.932 0-3.378 2.119-5.02 4.824-5.02.99-.012 1.973.18 2.886.563l.722-2.725c-.61-.295-1.961-.653-3.743-.653-4.599 0-8.297 2.86-8.297 8.017 0 4.324 2.706 7.612 7.96 7.61zM40.67 50.362V40.349H6.33v10.013zm-2.779-13.455l5.116-15.176h-3.651l-1.94 6.485a67.248 67.248 0 0 0-1.375 5.359h-.067c-.361-1.891-.835-3.603-1.352-5.427l-1.848-6.419h-3.766l4.87 15.178z"/></g></g></g></g></svg>