<svg xmlns="http://www.w3.org/2000/svg" width="30" height="30" viewBox="0 0 30 30"><g><g><g/><g><g/><g><path fill="#ed4c5c" d="M23 2.3C20.65.85 17.95 0 15 0v2.3z"/></g><g><path fill="#fff" d="M15 4.6h10.8c-.85-.85-1.8-1.65-2.8-2.3h-8z"/></g><g><path fill="#ed4c5c" d="M15 6.9h12.65c-.55-.85-1.15-1.6-1.8-2.3H15z"/></g><g><path fill="#fff" d="M15 9.2h13.85c-.35-.8-.75-1.6-1.2-2.3H15z"/></g><g><path fill="#ed4c5c" d="M15 11.5h14.6c-.2-.8-.45-1.55-.75-2.3H15z"/></g><g><path fill="#fff" d="M15 13.85h14.95c-.05-.8-.2-1.55-.35-2.3H15v2.3"/></g><g><path fill="#ed4c5c" d="M29.95 13.85H15V15H0c0 .4 0 .75.05 1.15h29.9c.05-.4.05-.75.05-1.15 0-.4 0-.8-.05-1.15"/></g><g><path fill="#fff" d="M.4 18.45h29.2c.2-.75.3-1.5.35-2.3H.05c.05.75.15 1.55.35 2.3z"/></g><g><path fill="#ed4c5c" d="M1.15 20.75h27.7c.3-.75.55-1.5.75-2.3H.4c.2.8.45 1.55.75 2.3z"/></g><g><path fill="#fff" d="M2.35 23.05h25.3c.45-.75.85-1.5 1.2-2.3H1.15c.35.8.75 1.55 1.2 2.3"/></g><g><path fill="#ed4c5c" d="M4.15 25.35h21.7c.65-.7 1.3-1.5 1.8-2.3H2.35c.5.85 1.15 1.6 1.8 2.3z"/></g><g><path fill="#fff" d="M6.95 27.65h16.1c1.05-.65 1.95-1.45 2.8-2.3H4.15c.85.9 1.8 1.65 2.8 2.3z"/></g><g><path fill="#ed4c5c" d="M15 30c2.95 0 5.7-.85 8.05-2.35H6.95C9.3 29.15 12.05 30 15 30z"/></g><g><path fill="#428bc1" d="M7 2.3c-1.05.65-2 1.45-2.85 2.3-.7.7-1.3 1.5-1.8 2.3-.45.75-.9 1.5-1.2 2.3-.3.75-.55 1.5-.75 2.3-.2.75-.3 1.5-.35 2.3C0 14.2 0 14.6 0 15h15V0c-2.95 0-5.65.85-8 2.3z"/></g><g><g><path fill="#fff" d="M11.5.5l.25.75h.75l-.6.5.2.75-.6-.45-.6.45.2-.75-.6-.5h.75z"/></g><g><path fill="#fff" d="M13.5 3.5l.25.75h.75l-.6.5.2.75-.6-.45-.6.45.2-.75-.6-.5h.75z"/></g><g><path fill="#fff" d="M9.5 3.5l.25.75h.75l-.6.5.2.75-.6-.45-.6.45.2-.75-.6-.5h.75z"/></g><g><path fill="#fff" d="M11.5 6.5l.25.75h.75l-.6.5.2.75-.6-.45-.6.45.2-.75-.6-.5h.75z"/></g><g><path fill="#fff" d="M7.5 6.5l.25.75h.75l-.6.5.2.75-.6-.45-.6.45.2-.75-.6-.5h.75z"/></g><g><path fill="#fff" d="M3.5 6.5l.25.75h.75l-.6.5.2.75-.6-.45-.6.45.2-.75-.6-.5h.75z"/></g><g><path fill="#fff" d="M13.5 9.5l.25.75h.75l-.6.5.2.75-.6-.45-.6.45.2-.75-.6-.5h.75z"/></g><g><path fill="#fff" d="M9.5 9.5l.25.75h.75l-.6.5.2.75-.6-.45-.6.45.2-.75-.6-.5h.75z"/></g><g><path fill="#fff" d="M5.5 9.5l.25.75h.75l-.6.5.2.75-.6-.45-.6.45.2-.75-.6-.5h.75z"/></g><g><path fill="#fff" d="M11.5 12.5l.25.75h.75l-.6.5.2.75-.6-.45-.6.45.2-.75-.6-.5h.75z"/></g><g><path fill="#fff" d="M7.5 12.5l.25.75h.75l-.6.5.2.75-.6-.45-.6.45.2-.75-.6-.5h.75z"/></g><g><path fill="#fff" d="M3.5 12.5l.25.75h.75l-.6.5.2.75-.6-.45-.6.45.2-.75-.6-.5h.75z"/></g><g><path fill="#fff" d="M4.9 5.5l.6-.45.6.45-.25-.75.6-.5H5.7l-.2-.75-.25.75h-.7l.6.45-.25.8"/></g><g><path fill="#fff" d="M.9 11.5l.6-.45.6.45-.25-.75.6-.5h-.7L1.5 9.5l-.25.75h-.5c0 .05-.05.1-.05.15l.4.3-.2.8"/></g></g></g></g></g></svg>