<svg xmlns="http://www.w3.org/2000/svg" width="48" height="54" viewBox="0 0 48 54"><g><g><g><path fill="#ed4c5c" d="M12.728 27.672c0-1.454-1.01-2.322-2.791-2.322-.727 0-1.219.07-1.477.14v4.67c.306.068.681.093 1.196.093 1.9 0 3.072-.962 3.072-2.58z"/></g><g><path fill="#ed4c5c" d="M23.75 25.39c-.797 0-1.314.07-1.62.142v10.345c.306.07.798.07 1.243.07 3.237.024 5.35-1.76 5.35-5.535.024-3.285-1.9-5.022-4.973-5.022z"/></g><g><path fill="#ed4c5c" d="M44.889 19.316a3.027 3.027 0 0 1 3.026 3.026v15.74a3.027 3.027 0 0 1-3.026 3.026H43.59v10.776c0 1.167-.95 2.118-2.117 2.118H6.53a2.12 2.12 0 0 1-2.118-2.118V41.108H3.116A3.028 3.028 0 0 1 .09 38.082v-15.74a3.026 3.026 0 0 1 3.026-3.026h1.297V2.118A2.12 2.12 0 0 1 6.531 0h25.59c.082 0 .164.01.243.03l.058.02c.187.055.355.16.487.304l.008.008 10.412 11.89c.164.192.253.436.251.688.007.039.01.078.012.118v6.258zm-38.358 0h34.945V14.01H32.12c-.585 0-1.06-.473-1.06-1.058V2.118H6.531zm23.321 5.023c-1.524-1.15-3.472-1.69-6.473-1.69-1.808 0-3.52.118-4.834.328v15.532c.893.114 2.205.233 4.059.233 3.097 0 5.63-.658 7.294-2.041 1.529-1.29 2.63-3.378 2.63-6.405 0-2.791-1.032-4.738-2.676-5.957zM8.454 38.579v-5.654c.327.047.75.07 1.218.07 2.112 0 3.918-.516 5.138-1.666.94-.891 1.454-2.204 1.454-3.753 0-1.548-.679-2.862-1.687-3.66-1.054-.843-2.626-1.266-4.832-1.266-2.18 0-3.73.14-4.832.327v15.602zm33.02 2.53H6.53V51.31h34.943zm3.068-18.342h-9.664v15.812h3.587v-6.357h5.677v-2.91h-5.677V25.7h6.077z"/></g></g></g></svg>