<svg xmlns="http://www.w3.org/2000/svg" width="48" height="60" viewBox="0 0 48 60"><g><g><path fill="#ed4c5c" d="M46.872 7.949c.535.187.973.8.96 1.366v31.093c0 .573-.367 1.32-.812 1.669L24.803 59.389c-.219.174-.515.264-.812.264-.296 0-.586-.09-.812-.264L.962 42.077c-.445-.354-.812-1.102-.812-1.67V9.316c0-.567.438-1.186.973-1.366L23.024.485c.265-.09.62-.135.974-.135s.709.045.973.135zM23.998 54.136L43.205 39.17V11.61L23.998 5.062 4.79 11.61v27.56zm-7.032-23.055A9.288 9.288 0 0 1 18.26 19.57a9.286 9.286 0 0 1 13.136 0 9.286 9.286 0 0 1 0 13.135 9.287 9.287 0 0 1-11.511 1.296l-4.996 4.995c-.2.2-.528.2-.728 0l-2.191-2.191a.517.517 0 0 1 0-.729zm11.511-8.591a5.16 5.16 0 0 0-7.296 7.296 5.154 5.154 0 0 0 7.296 0 5.154 5.154 0 0 0 0-7.296z"/></g></g></svg>